<?xml version="1.0" standalone="no"?>
<!DOCTYPE svg PUBLIC "-//W3C//DTD SVG 20010904//EN"
 "http://www.w3.org/TR/2001/REC-SVG-20010904/DTD/svg10.dtd">
<svg version="1.0" xmlns="http://www.w3.org/2000/svg"
 width="500.000000pt" height="281.000000pt" viewBox="0 0 500.000000 281.000000"
 preserveAspectRatio="xMidYMid meet">

<g transform="translate(0.000000,281.000000) scale(0.100000,-0.100000)"
fill="#000000" stroke="none">
<path d="M0 1405 l0 -1405 2500 0 2500 0 0 1405 0 1405 -2500 0 -2500 0 0
-1405z m4835 1015 c-5 -8 -11 -8 -17 -2 -6 6 -7 16 -3 22 5 8 11 8 17 2 6 -6
7 -16 3 -22z m-3379 -371 c10 -17 -13 -36 -27 -22 -12 12 -4 33 11 33 5 0 12
-5 16 -11z m2411 -195 c13 -4 20 -11 17 -16 -4 -6 1 -8 12 -4 23 7 78 -39 68
-56 -4 -7 -2 -8 4 -4 17 10 44 -51 49 -115 5 -49 2 -67 -21 -113 -66 -135
-225 -163 -332 -59 -26 24 -44 46 -42 48 2 2 27 -8 56 -22 35 -17 75 -27 120
-31 61 -4 71 -2 95 19 36 32 45 78 20 107 -14 16 -33 23 -83 27 -102 9 -155
24 -191 54 -32 27 -33 30 -19 55 20 39 61 77 73 69 5 -3 7 -2 4 4 -6 9 16 24
53 36 22 8 91 8 117 1z m-607 -99 c0 -8 -7 -15 -15 -15 -16 0 -20 12 -8 23 11
12 23 8 23 -8z m393 -149 c6 -16 -2 -28 -14 -20 -12 7 -11 34 0 34 5 0 11 -6
14 -14z m101 -42 c4 -10 1 -14 -6 -12 -15 5 -23 28 -10 28 5 0 13 -7 16 -16z
m-106 -90 c16 -11 21 -24 19 -46 -2 -26 4 -35 30 -50 67 -40 188 -33 239 14
12 11 24 15 28 10 3 -5 -5 -14 -19 -20 -13 -6 -31 -22 -40 -36 -21 -32 -16
-90 8 -94 15 -3 17 1 11 23 -8 32 27 75 62 75 28 0 64 -44 59 -72 -5 -26 -24
-48 -41 -48 -8 0 -12 -11 -12 -29 1 -30 -44 -118 -91 -180 -54 -71 -143 -75
-193 -8 -66 86 -113 209 -102 265 12 66 13 82 2 82 -21 0 -58 43 -58 66 0 22
42 64 64 64 6 0 22 -7 34 -16z m-2564 -52 c20 -38 26 -44 31 -29 4 10 2 30 -4
43 -15 33 -4 50 19 29 15 -14 18 -14 30 0 20 24 31 6 15 -25 -14 -27 -12 -60
4 -60 4 0 17 20 29 45 12 25 29 45 37 45 17 0 16 -2 -33 -97 -16 -33 -45 -43
-58 -22 -4 8 -9 8 -17 0 -25 -25 -47 -11 -77 49 -17 34 -28 65 -25 71 10 15
23 1 49 -49z m256 -13 c35 -68 35 -69 15 -69 -8 0 -25 20 -37 45 -12 25 -25
45 -28 45 -3 0 -14 -20 -24 -45 -13 -31 -25 -45 -38 -45 -16 0 -14 8 17 70 42
83 53 83 95 -1z m185 57 c32 -12 10 -66 -27 -66 -25 0 -23 -7 10 -35 l27 -24
-26 -1 c-29 0 -95 62 -85 79 4 6 26 11 49 11 29 0 38 3 30 11 -6 6 -28 9 -49
7 l-39 -3 -3 -52 c-2 -38 -7 -53 -18 -53 -11 0 -14 15 -14 63 0 35 2 66 4 68
6 6 124 2 141 -5z m355 -7 c0 -5 -27 -9 -59 -9 -33 0 -63 -4 -66 -10 -4 -6 12
-10 41 -10 68 0 107 -43 72 -78 -17 -17 -151 -16 -146 1 3 7 28 13 67 15 81 4
78 25 -5 32 -58 5 -59 6 -59 35 0 30 0 30 70 35 75 5 85 4 85 -11z m250 -55
c0 -48 -3 -65 -12 -62 -14 5 -24 99 -14 125 12 32 26 -2 26 -63z m-1260 57 c0
-6 -15 -11 -32 -13 -32 -3 -33 -4 -36 -55 -2 -37 -7 -53 -17 -53 -10 0 -15 16
-17 53 -3 48 -5 52 -30 55 -16 2 -28 8 -28 13 0 5 36 9 80 9 44 0 80 -4 80 -9z
m158 -24 c26 -54 -7 -97 -75 -97 -57 0 -83 21 -83 66 0 50 22 65 89 62 50 -3
57 -6 69 -31z m666 11 c9 -12 16 -32 16 -43 0 -11 -7 -31 -16 -43 -13 -19 -24
-22 -80 -22 l-64 0 0 46 c0 50 22 59 28 11 3 -24 8 -27 41 -27 43 0 66 19 56
48 -6 22 -33 32 -87 32 -21 0 -38 5 -38 10 0 6 28 10 64 10 56 0 67 -3 80 -22z
m369 -33 c31 -63 33 -75 14 -75 -8 0 -22 18 -32 40 -10 23 -22 43 -27 46 -4 3
-18 -15 -30 -40 -12 -26 -28 -46 -35 -46 -19 0 -16 13 14 75 20 40 33 55 48
55 15 0 28 -15 48 -55z m1314 -21 c19 -5 22 -12 19 -40 -3 -24 -1 -31 9 -28 8
3 11 12 8 20 -3 8 -3 14 0 14 3 0 7 -7 11 -15 8 -23 -65 -56 -131 -58 -34 -1
-57 2 -60 9 -6 17 47 75 82 90 35 16 34 15 62 8z m1093 -19 c0 -8 -7 -15 -15
-15 -16 0 -20 12 -8 23 11 12 23 8 23 -8z m-4224 -46 c3 -6 2 -15 -2 -19 -12
-12 -38 5 -30 19 9 14 23 14 32 0z m2930 -145 c87 -49 179 -80 297 -100 l97
-17 0 -160 0 -159 -62 7 c-146 17 -308 81 -426 170 l-62 47 0 159 0 159 45
-35 c25 -19 75 -51 111 -71z m919 -74 c-3 -5 -1 -10 4 -10 14 0 14 -53 0 -100
-7 -23 -22 -43 -36 -51 -23 -12 -27 -11 -44 10 -39 48 -17 120 45 147 38 16
39 16 31 4z m-37 -197 c-6 -7 -12 -13 -13 -13 -2 0 -5 6 -8 13 -3 7 3 13 14
13 13 0 15 -3 7 -13z m-2502 -284 c10 -17 -13 -36 -27 -22 -12 12 -4 33 11 33
5 0 12 -5 16 -11z m351 -171 c-2 -29 -3 -6 -3 52 0 58 1 81 3 53 2 -29 2 -77
0 -105z m841 140 c-6 -18 -28 -21 -28 -4 0 9 7 16 16 16 9 0 14 -5 12 -12z
m-2191 -155 c-3 -10 -5 -2 -5 17 0 19 2 27 5 18 2 -10 2 -26 0 -35z m3728 -32
c7 -12 -12 -24 -25 -16 -11 7 -4 25 10 25 5 0 11 -4 15 -9z m-4035 -126 c0 -8
-6 -15 -14 -15 -17 0 -28 14 -19 24 12 12 33 6 33 -9z"/>
<path d="M3980 1736 c0 -8 4 -17 9 -20 5 -4 7 3 4 14 -6 23 -13 26 -13 6z"/>
<path d="M910 1430 c-16 -16 -18 -25 -11 -39 19 -34 84 -32 105 2 9 15 6 22
-13 38 -30 24 -56 24 -81 -1z"/>
<path d="M3040 1109 c0 -119 0 -121 27 -143 39 -31 107 -76 116 -76 4 0 7 58
7 129 l0 129 -69 41 c-38 22 -72 41 -75 41 -3 0 -6 -54 -6 -121z m100 14 c0
-7 -4 -13 -10 -13 -5 0 2 -16 15 -36 32 -47 32 -61 0 -40 -14 9 -36 23 -50 32
-36 24 -31 52 8 45 4 -1 3 8 -3 19 -16 30 -2 45 21 24 10 -9 19 -23 19 -31z"/>
<path d="M3255 1069 c-4 -5 1 -20 12 -31 16 -19 16 -21 1 -15 -19 7 -54 -21
-41 -33 15 -14 101 -48 107 -43 7 8 -23 63 -34 63 -6 0 -5 8 2 19 9 15 9 23
-1 35 -15 18 -37 21 -46 5z"/>
<path d="M3433 1014 c-3 -8 -1 -20 5 -26 8 -8 5 -14 -11 -22 -37 -19 -33 -43
10 -50 21 -4 46 -9 56 -12 24 -7 22 18 -3 41 -13 12 -18 25 -14 37 10 34 -30
65 -43 32z"/>
<path d="M3230 964 c0 -7 71 -36 76 -31 2 2 -14 11 -36 20 -22 8 -40 13 -40
11z"/>
<path d="M3230 934 c0 -7 91 -46 96 -41 2 2 -18 14 -46 25 -27 11 -50 19 -50
16z"/>
<path d="M3240 900 c8 -5 20 -10 25 -10 6 0 3 5 -5 10 -8 5 -19 10 -25 10 -5
0 -3 -5 5 -10z"/>
<path d="M3425 890 c17 -4 41 -8 55 -8 22 0 22 1 -5 8 -16 4 -41 8 -55 8 -22
0 -22 -1 5 -8z"/>
<path d="M3411 866 c2 -2 20 -6 39 -10 25 -4 31 -3 20 4 -14 9 -69 15 -59 6z"/>
<path d="M3408 843 c7 -3 16 -2 19 1 4 3 -2 6 -13 5 -11 0 -14 -3 -6 -6z"/>
<path d="M3453 833 c9 -2 23 -2 30 0 6 3 -1 5 -18 5 -16 0 -22 -2 -12 -5z"/>
</g>
</svg>
