<?xml version="1.0" standalone="no"?>
<!DOCTYPE svg PUBLIC "-//W3C//DTD SVG 20010904//EN"
 "http://www.w3.org/TR/2001/REC-SVG-20010904/DTD/svg10.dtd">
<svg version="1.0" xmlns="http://www.w3.org/2000/svg"
 width="626.000000pt" height="417.000000pt" viewBox="0 0 626.000000 417.000000"
 preserveAspectRatio="xMidYMid meet">

<g transform="translate(0.000000,417.000000) scale(0.100000,-0.100000)"
fill="#000000" stroke="none">
<path d="M2093 3753 c582 -2 1532 -2 2110 0 579 1 103 2 -1058 2 -1160 0
-1634 -1 -1052 -2z"/>
<path d="M979 3729 l-24 -20 30 17 c39 24 40 24 28 24 -6 0 -21 -9 -34 -21z"/>
<path d="M5305 3720 c10 -11 20 -20 23 -20 3 0 -3 9 -13 20 -10 11 -20 20 -23
20 -3 0 3 -9 13 -20z"/>
<path d="M944 3470 c0 -113 2 -159 3 -102 2 56 2 148 0 205 -1 56 -3 10 -3
-103z"/>
<path d="M1032 3443 l3 -198 2 192 3 193 2103 3 2102 2 -2107 3 -2108 2 2
-197z"/>
<path d="M1334 3287 c-2 -7 -3 -85 -1 -172 l3 -160 2 167 2 167 118 4 117 3
-118 2 c-88 1 -119 -1 -123 -11z"/>
<path d="M1622 3259 l33 -30 -33 4 c-20 2 -31 0 -29 -7 2 -6 9 -11 15 -10 7 1
24 2 39 3 l27 1 -34 35 c-19 19 -38 35 -42 35 -5 0 6 -14 24 -31z"/>
<path d="M1132 3220 c3 -44 4 -45 36 -42 l32 2 0 -125 0 -125 -81 0 c-92 0
-119 -10 -119 -45 l0 -25 234 0 c128 0 253 -2 277 -4 24 -2 34 -2 22 1 -13 2
-23 10 -23 18 0 7 -8 22 -17 34 -17 20 -27 22 -150 22 l-133 0 0 127 0 128
-41 39 -40 40 3 -45z m38 -5 l23 -25 -26 0 c-22 0 -27 5 -27 25 0 14 1 25 3
25 2 0 14 -11 27 -25z m203 -326 c-17 -17 -37 -1 -22 17 8 10 15 12 23 4 7 -7
7 -13 -1 -21z m57 5 c0 -8 -7 -14 -15 -14 -15 0 -21 21 -9 33 10 9 24 -2 24
-19z m54 -5 c-8 -14 -34 -11 -34 4 0 8 3 17 7 20 9 9 34 -13 27 -24z"/>
<path d="M1663 3160 c0 -30 2 -43 4 -27 2 15 2 39 0 55 -2 15 -4 2 -4 -28z"/>
<path d="M4314 3151 c-47 -29 -54 -63 -54 -272 l0 -189 -24 0 c-14 0 -28 -4
-31 -10 -3 -5 -40 -10 -81 -10 l-74 0 0 -285 0 -285 -55 0 c-42 0 -55 -3 -55
-15 0 -12 14 -15 65 -15 l65 0 2 283 3 282 64 3 c36 2 69 -2 74 -7 6 -6 19
-11 29 -11 17 0 18 -14 18 -185 0 -213 7 -242 63 -269 33 -15 89 -16 639 -14
585 3 604 4 630 23 15 11 32 33 38 49 6 18 10 180 10 438 0 449 -2 463 -59
492 -26 14 -105 16 -633 16 -575 0 -604 -1 -634 -19z m1226 -61 c36 -19 40
-62 40 -430 0 -368 -4 -411 -40 -430 -12 -6 -238 -10 -593 -10 -551 0 -576 1
-598 19 l-24 19 -3 396 -3 396 25 25 25 25 576 0 c357 0 583 -4 595 -10z"/>
<path d="M4840 3026 c0 -12 22 -15 105 -18 95 -3 105 -1 105 15 0 15 -12 17
-105 17 -85 0 -105 -3 -105 -14z"/>
<path d="M4418 2853 c7 -3 16 -2 19 1 4 3 -2 6 -13 5 -11 0 -14 -3 -6 -6z"/>
<path d="M5380 2595 l0 -245 48 0 47 0 0 245 0 245 -47 0 -48 0 0 -245z"/>
<path d="M4490 2545 l0 -195 48 0 47 0 0 195 0 195 -47 0 -48 0 0 -195z"/>
<path d="M4790 2525 l0 -175 45 0 45 0 0 175 0 175 -45 0 -45 0 0 -175z"/>
<path d="M5088 2520 l3 -170 44 0 45 0 0 170 0 170 -47 0 -48 0 3 -170z"/>
<path d="M4418 2663 c7 -3 16 -2 19 1 4 3 -2 6 -13 5 -11 0 -14 -3 -6 -6z"/>
<path d="M4418 2473 c7 -3 16 -2 19 1 4 3 -2 6 -13 5 -11 0 -14 -3 -6 -6z"/>
<path d="M5081 2304 c0 -11 3 -14 6 -6 3 7 2 16 -1 19 -3 4 -6 -2 -5 -13z"/>
<path d="M993 3153 c26 -2 67 -2 90 0 23 2 2 3 -48 3 -49 0 -68 -1 -42 -3z"/>
<path d="M1393 3133 c9 -2 25 -2 35 0 9 3 1 5 -18 5 -19 0 -27 -2 -17 -5z"/>
<path d="M1538 3133 c12 -2 32 -2 45 0 12 2 2 4 -23 4 -25 0 -35 -2 -22 -4z"/>
<path d="M983 3093 c37 -2 96 -2 130 0 34 2 4 3 -68 3 -71 0 -99 -1 -62 -3z"/>
<path d="M1588 3073 c7 -3 16 -2 19 1 4 3 -2 6 -13 5 -11 0 -14 -3 -6 -6z"/>
<path d="M1583 2995 c0 -33 2 -45 4 -27 2 18 2 45 0 60 -2 15 -4 0 -4 -33z"/>
<path d="M1862 3020 l33 -29 -27 -1 c-22 0 -28 5 -29 23 -1 17 -2 18 -6 4 -7
-27 15 -48 43 -41 l24 6 3 -168 3 -169 2 171 2 170 -33 32 c-18 18 -36 32 -40
32 -4 0 7 -13 25 -30z"/>
<path d="M988 3033 c34 -2 90 -2 125 0 34 2 6 3 -63 3 -69 0 -97 -1 -62 -3z"/>
<path d="M3670 2988 c3 -2 30 -26 60 -53 54 -49 54 -49 15 -6 -22 23 -49 47
-60 53 -11 6 -18 9 -15 6z"/>
<path d="M3259 2933 l-34 -38 38 34 c34 33 42 41 34 41 -2 0 -19 -17 -38 -37z"/>
<path d="M1579 2893 c-2 -21 -2 -92 1 -158 l6 -120 2 158 c2 150 -2 199 -9
120z"/>
<path d="M938 2903 c6 -2 18 -2 25 0 6 3 1 5 -13 5 -14 0 -19 -2 -12 -5z"/>
<path d="M1683 2893 c37 -2 96 -2 130 0 34 2 4 3 -68 3 -71 0 -99 -1 -62 -3z"/>
<path d="M3797 2845 c9 -19 18 -33 21 -31 4 5 -26 66 -33 66 -3 0 3 -16 12
-35z"/>
<path d="M3195 2849 c-4 -6 -5 -12 -2 -15 2 -3 7 2 10 11 7 17 1 20 -8 4z"/>
<path d="M1504 2625 c0 -121 2 -169 3 -107 2 62 2 161 0 220 -1 59 -3 8 -3
-113z"/>
<path d="M1688 2833 c34 -2 90 -2 125 0 34 2 6 3 -63 3 -69 0 -97 -1 -62 -3z"/>
<path d="M2008 2833 c12 -2 30 -2 40 0 9 3 -1 5 -23 4 -22 0 -30 -2 -17 -4z"/>
<path d="M2118 2833 c18 -2 45 -2 60 0 15 2 0 4 -33 4 -33 0 -45 -2 -27 -4z"/>
<path d="M938 2703 c4 -211 8 -231 10 -55 1 94 -1 172 -5 172 -5 0 -7 -53 -5
-117z"/>
<path d="M1643 2773 c9 -2 23 -2 30 0 6 3 -1 5 -18 5 -16 0 -22 -2 -12 -5z"/>
<path d="M3420 2768 c-59 -22 -82 -75 -56 -126 45 -86 182 -37 161 58 -11 48
-65 83 -105 68z m50 -63 c26 -32 -13 -81 -47 -59 -35 22 -23 74 17 74 10 0 23
-7 30 -15z"/>
<path d="M3657 2750 c-48 -38 -45 -121 5 -154 13 -9 53 -17 88 -20 l65 -4 -3
99 -3 99 -63 0 c-49 0 -69 -5 -89 -20z m94 -30 c35 -19 18 -80 -22 -80 -19 0
-49 25 -49 41 0 10 36 49 46 49 3 0 14 -5 25 -10z"/>
<path d="M3161 2734 c0 -11 3 -14 6 -6 3 7 2 16 -1 19 -3 4 -6 -2 -5 -13z"/>
<path d="M2168 2723 c6 -2 18 -2 25 0 6 3 1 5 -13 5 -14 0 -19 -2 -12 -5z"/>
<path d="M713 2713 c26 -2 68 -2 95 0 26 2 4 3 -48 3 -52 0 -74 -1 -47 -3z"/>
<path d="M883 2713 c9 -2 23 -2 30 0 6 3 -1 5 -18 5 -16 0 -22 -2 -12 -5z"/>
<path d="M3160 2678 c0 -23 -5 -27 -40 -33 l-39 -7 -3 -193 c-3 -181 -2 -192
15 -184 15 9 17 28 17 178 l0 168 30 -5 c23 -3 35 -14 50 -42 17 -32 22 -36
49 -32 l31 4 0 83 0 83 -55 4 c-54 3 -55 2 -55 -24z"/>
<path d="M1968 2683 c7 -3 16 -2 19 1 4 3 -2 6 -13 5 -11 0 -14 -3 -6 -6z"/>
<path d="M2038 2683 c6 -2 18 -2 25 0 6 3 1 5 -13 5 -14 0 -19 -2 -12 -5z"/>
<path d="M2088 2683 c7 -3 16 -2 19 1 4 3 -2 6 -13 5 -11 0 -14 -3 -6 -6z"/>
<path d="M1173 2583 c37 -2 96 -2 130 0 34 2 4 3 -68 3 -71 0 -99 -1 -62 -3z"/>
<path d="M1398 2583 c7 -3 16 -2 19 1 4 3 -2 6 -13 5 -11 0 -14 -3 -6 -6z"/>
<path d="M693 2563 c15 -2 37 -2 50 0 12 2 0 4 -28 4 -27 0 -38 -2 -22 -4z"/>
<path d="M817 2563 c18 -2 50 -2 70 0 21 2 7 4 -32 4 -38 0 -55 -2 -38 -4z"/>
<path d="M2290 2550 c14 -10 27 -17 29 -14 6 5 -31 33 -44 33 -5 1 1 -8 15
-19z"/>
<path d="M3796 2543 c-6 -14 -5 -15 5 -6 7 7 10 15 7 18 -3 3 -9 -2 -12 -12z"/>
<path d="M1579 2503 l-24 -28 28 24 c25 23 32 31 24 31 -2 0 -14 -12 -28 -27z"/>
<path d="M2295 2500 c-19 -8 -19 -9 3 -9 12 -1 22 4 22 9 0 6 -1 10 -2 9 -2 0
-12 -4 -23 -9z"/>
<path d="M3255 2460 c21 -22 41 -40 44 -40 3 0 -13 18 -34 40 -21 22 -41 40
-44 40 -3 0 13 -18 34 -40z"/>
<path d="M3735 2458 l-40 -43 43 40 c39 36 47 45 39 45 -2 0 -21 -19 -42 -42z"/>
<path d="M2118 2473 c28 -2 76 -2 105 0 28 2 5 3 -53 3 -58 0 -81 -1 -52 -3z"/>
<path d="M880 2460 c-58 -4 -65 -7 -68 -27 l-3 -23 175 0 c170 0 176 1 176 20
0 11 -6 23 -12 25 -21 7 -198 10 -268 5z m190 -20 c0 -5 -4 -10 -10 -10 -5 0
-10 5 -10 10 0 6 5 10 10 10 6 0 10 -4 10 -10z m40 0 c0 -5 -7 -10 -16 -10 -8
0 -12 5 -9 10 3 6 10 10 16 10 5 0 9 -4 9 -10z m40 0 c0 -5 -7 -10 -15 -10 -8
0 -15 5 -15 10 0 6 7 10 15 10 8 0 15 -4 15 -10z"/>
<path d="M1534 2461 c-2 -2 -4 -7 -4 -11 0 -8 69 0 74 9 4 7 -63 9 -70 2z"/>
<path d="M1773 2432 l-93 -3 0 -54 0 -55 114 0 114 0 4 54 c4 64 7 63 -139 58z
m97 -23 c0 -5 -5 -9 -11 -9 -8 0 -8 -4 -1 -13 15 -18 -1 -40 -32 -44 -21 -3
-26 0 -26 19 l-1 23 -19 -24 -20 -23 0 40 0 40 55 0 c30 0 55 -4 55 -9z"/>
<path d="M1812 2375 c0 -16 2 -22 5 -12 2 9 2 23 0 30 -3 6 -5 -1 -5 -18z"/>
<path d="M1533 2380 c0 -30 2 -43 4 -27 2 15 2 39 0 55 -2 15 -4 2 -4 -28z"/>
<path d="M2630 2388 c18 -19 21 -33 18 -85 -2 -48 0 -59 10 -51 6 6 12 32 12
59 0 37 -6 54 -24 73 -13 15 -26 26 -30 26 -4 0 3 -10 14 -22z"/>
<path d="M3386 2333 c1 -36 -3 -50 -15 -55 -9 -4 47 -7 124 -7 77 1 134 3 128
6 -8 3 -13 24 -13 53 l0 48 -37 -10 c-37 -10 -143 -6 -173 6 -12 5 -15 -3 -14
-41z"/>
<path d="M2680 2311 c0 -66 3 -68 70 -67 39 1 45 4 48 24 3 21 1 23 -20 17
-50 -16 -52 -15 -15 5 32 17 38 26 35 48 -5 43 -43 42 -69 -2 -25 -42 -32 -46
-19 -10 14 36 13 44 -10 44 -18 0 -20 -7 -20 -59z"/>
<path d="M913 2343 c31 -2 83 -2 115 0 31 2 5 3 -58 3 -63 0 -89 -1 -57 -3z"/>
<path d="M1531 2304 c0 -11 3 -14 6 -6 3 7 2 16 -1 19 -3 4 -6 -2 -5 -13z"/>
<path d="M2862 2275 c0 -16 2 -22 5 -12 2 9 2 23 0 30 -3 6 -5 -1 -5 -18z"/>
<path d="M913 2283 c31 -2 83 -2 115 0 31 2 5 3 -58 3 -63 0 -89 -1 -57 -3z"/>
<path d="M1532 2183 l-2 -93 165 0 165 0 0 50 0 50 -159 0 -160 0 -4 43 c-2
23 -4 0 -5 -50z"/>
<path d="M3890 2266 c0 -2 7 -7 16 -10 8 -3 12 -2 9 4 -6 10 -25 14 -25 6z"/>
<path d="M638 2253 c18 -2 45 -2 60 0 15 2 0 4 -33 4 -33 0 -45 -2 -27 -4z"/>
<path d="M758 2253 c12 -2 30 -2 40 0 9 3 -1 5 -23 4 -22 0 -30 -2 -17 -4z"/>
<path d="M1643 2243 c31 -2 83 -2 115 0 31 2 5 3 -58 3 -63 0 -89 -1 -57 -3z"/>
<path d="M2863 2180 c0 -36 2 -50 4 -32 2 17 2 47 0 65 -2 17 -4 3 -4 -33z"/>
<path d="M2128 2223 c34 -2 88 -2 120 0 31 2 3 3 -63 3 -66 0 -92 -1 -57 -3z"/>
<path d="M2680 2220 c0 -6 27 -10 60 -10 33 0 60 4 60 10 0 6 -27 10 -60 10
-33 0 -60 -4 -60 -10z"/>
<path d="M3403 2213 c54 -2 139 -2 190 0 51 1 7 3 -98 3 -104 0 -146 -2 -92
-3z"/>
<path d="M2690 2192 c-6 -2 -10 -8 -10 -13 0 -5 27 -9 60 -9 33 0 60 4 60 9 0
9 -90 19 -110 13z"/>
<path d="M3022 2175 c0 -16 2 -22 5 -12 2 9 2 23 0 30 -3 6 -5 -1 -5 -18z"/>
<path d="M1465 2161 l20 -24 -28 5 c-21 4 -27 2 -23 -8 4 -10 -15 -14 -87 -17
l-92 -3 103 -2 c67 -1 101 2 97 8 -3 6 3 10 14 10 27 0 27 12 -1 36 l-23 19
20 -24z"/>
<path d="M2680 2145 c0 -12 13 -15 60 -15 47 0 60 3 60 15 0 12 -13 15 -60 15
-47 0 -60 -3 -60 -15z"/>
<path d="M618 2143 c6 -2 18 -2 25 0 6 3 1 5 -13 5 -14 0 -19 -2 -12 -5z"/>
<path d="M668 2143 c6 -2 18 -2 25 0 6 3 1 5 -13 5 -14 0 -19 -2 -12 -5z"/>
<path d="M738 2143 c12 -2 30 -2 40 0 9 3 -1 5 -23 4 -22 0 -30 -2 -17 -4z"/>
<path d="M3275 2120 c-3 -6 1 -7 9 -4 18 7 21 14 7 14 -6 0 -13 -4 -16 -10z"/>
<path d="M3707 2119 c7 -9 14 -58 16 -120 l3 -104 2 106 c2 91 -1 109 -15 120
-16 12 -17 12 -6 -2z"/>
<path d="M810 2113 c0 -5 10 -18 23 -29 l22 -19 -20 25 c-11 14 -21 27 -22 29
-2 2 -3 0 -3 -6z"/>
<path d="M1136 2092 l-19 -27 24 22 c12 12 21 24 18 27 -2 2 -13 -8 -23 -22z"/>
<path d="M2683 2108 c2 -8 23 -13 57 -13 34 0 55 5 58 13 3 9 -13 12 -58 12
-45 0 -61 -3 -57 -12z"/>
<path d="M2579 2093 c-13 -16 -12 -17 4 -4 16 13 21 21 13 21 -2 0 -10 -8 -17
-17z"/>
<path d="M3098 2103 c7 -3 16 -2 19 1 4 3 -2 6 -13 5 -11 0 -14 -3 -6 -6z"/>
<path d="M3262 2004 c-2 -86 1 -104 16 -115 15 -12 16 -12 5 2 -7 9 -14 57
-16 115 l-3 99 -2 -101z"/>
<path d="M3422 2058 l1 -43 4 38 c2 20 8 35 14 32 5 -4 9 -1 9 4 0 6 -7 11
-15 11 -11 0 -15 -11 -13 -42z"/>
<path d="M3470 2086 c0 -8 5 -18 10 -21 6 -3 10 1 10 9 0 8 -4 18 -10 21 -5 3
-10 -1 -10 -9z"/>
<path d="M3508 2065 c2 -19 5 -35 7 -35 2 0 5 16 7 35 2 21 0 35 -7 35 -7 0
-9 -14 -7 -35z"/>
<path d="M3546 2075 c-5 -19 -3 -31 6 -36 17 -11 22 10 10 41 l-9 24 -7 -29z"/>
<path d="M3829 2083 c-13 -16 -12 -17 4 -4 16 13 21 21 13 21 -2 0 -10 -8 -17
-17z"/>
<path d="M1222 2065 c0 -16 2 -22 5 -12 2 9 2 23 0 30 -3 6 -5 -1 -5 -18z"/>
<path d="M2680 2070 c0 -6 27 -10 60 -10 33 0 60 4 60 10 0 6 -27 10 -60 10
-33 0 -60 -4 -60 -10z"/>
<path d="M898 2063 l42 -4 0 -109 0 -109 -32 -4 -33 -4 33 -1 c32 -2 45 -25
20 -35 -8 -3 -6 -6 5 -6 10 -1 17 6 17 18 0 15 8 21 38 24 l37 4 -37 1 -37 2
0 110 0 110 39 0 40 0 0 -54 c0 -49 -2 -55 -22 -59 l-23 -4 22 -2 23 -1 2
-382 3 -383 1228 -3 c675 -1 1227 -6 1227 -10 0 -4 -4 -12 -9 -17 -6 -6 -2
-10 13 -10 17 0 22 5 18 17 -4 17 20 18 369 21 l374 2 -374 3 c-327 2 -372 4
-367 17 4 10 -1 15 -14 15 -11 0 -19 -6 -18 -12 2 -10 -248 -14 -1220 -16
l-1222 -2 0 324 1 325 32 4 32 4 -32 1 c-33 2 -33 3 -33 51 0 49 1 50 33 54
l32 4 -32 1 c-33 2 -33 2 -33 56 0 54 0 55 33 59 17 2 -24 4 -93 4 -69 0 -106
-2 -82 -4z"/>
<path d="M1308 2063 c28 -2 76 -2 105 0 28 2 5 3 -53 3 -58 0 -81 -1 -52 -3z"/>
<path d="M3460 2042 c0 -4 9 -8 20 -8 11 0 20 4 20 8 0 4 -9 8 -20 8 -11 0
-20 -4 -20 -8z"/>
<path d="M2680 2030 c0 -6 27 -10 60 -10 33 0 60 4 60 10 0 6 -27 10 -60 10
-33 0 -60 -4 -60 -10z"/>
<path d="M4778 2030 l-458 -5 -27 -28 -28 -27 -3 -220 c-3 -208 -4 -220 -22
-220 -10 0 -22 -4 -25 -10 -3 -5 -37 -10 -76 -10 l-69 0 0 205 0 205 -85 0
c-61 0 -85 4 -86 13 0 6 -7 -3 -15 -22 -8 -18 -13 -36 -10 -39 4 -3 6 0 6 6 0
8 26 12 80 12 l80 0 2 -202 3 -203 80 -3 c44 -2 84 -7 89 -12 6 -6 18 -10 28
-10 17 0 18 -13 18 -175 0 -137 3 -182 15 -205 33 -63 -1 -60 676 -60 607 0
617 0 642 21 46 35 48 65 45 512 l-3 419 -33 29 c-31 28 -36 29 -140 30 -59 0
-134 1 -167 2 -33 1 -266 0 -517 -3z m769 -84 l28 -24 0 -397 0 -397 -28 -24
-28 -24 -569 0 -569 0 -28 24 -28 24 -3 392 -3 391 30 29 29 30 571 0 570 0
28 -24z"/>
<path d="M4580 1800 c-242 -131 -231 -482 18 -598 47 -22 71 -27 137 -27 108
0 118 5 101 47 l-14 33 -65 -3 c-239 -13 -366 271 -195 435 18 18 54 41 80 53
44 19 46 22 38 49 -4 16 -6 32 -2 35 18 18 -51 1 -98 -24z"/>
<path d="M5190 1715 l0 -45 45 0 45 0 0 45 0 45 -45 0 -45 0 0 -45z"/>
<path d="M5378 1713 c23 -2 59 -2 80 0 20 2 1 4 -43 4 -44 0 -61 -2 -37 -4z"/>
<path d="M5368 1493 c18 -2 45 -2 60 0 15 2 0 4 -33 4 -33 0 -45 -2 -27 -4z"/>
<path d="M1223 1985 c0 -27 2 -38 4 -22 2 15 2 37 0 50 -2 12 -4 0 -4 -28z"/>
<path d="M2687 2003 c-8 -8 -9 -43 -2 -43 3 0 22 7 43 15 l37 15 -25 -20 c-14
-11 -31 -20 -37 -20 -15 0 -28 -44 -18 -59 3 -6 17 -11 30 -11 19 0 30 11 49
48 28 53 34 53 11 -1 -19 -47 -19 -49 8 -45 19 3 22 10 25 51 2 27 -2 55 -9
63 -12 14 -99 20 -112 7z"/>
<path d="M1708 1993 c18 -2 45 -2 60 0 15 2 0 4 -33 4 -33 0 -45 -2 -27 -4z"/>
<path d="M1848 1993 c18 -2 45 -2 60 0 15 2 0 4 -33 4 -33 0 -45 -2 -27 -4z"/>
<path d="M2820 1940 c0 -33 4 -60 10 -60 6 0 10 27 10 60 0 33 -4 60 -10 60
-6 0 -10 -27 -10 -60z"/>
<path d="M2860 1940 c0 -33 4 -60 10 -60 6 0 10 27 10 60 0 33 -4 60 -10 60
-6 0 -10 -27 -10 -60z"/>
<path d="M2890 1940 c0 -45 3 -61 13 -57 7 2 12 23 12 57 0 34 -5 55 -12 58
-10 3 -13 -13 -13 -58z"/>
<path d="M2930 1940 c0 -33 4 -60 10 -60 6 0 10 27 10 60 0 33 -4 60 -10 60
-6 0 -10 -27 -10 -60z"/>
<path d="M2970 1940 c0 -33 4 -60 10 -60 6 0 10 27 10 60 0 33 -4 60 -10 60
-6 0 -10 -27 -10 -60z"/>
<path d="M3004 1986 c-9 -24 1 -99 14 -104 9 -3 12 13 12 57 0 57 -13 81 -26
47z"/>
<path d="M3040 1940 c0 -66 15 -82 22 -23 5 44 -1 83 -13 83 -5 0 -9 -27 -9
-60z"/>
<path d="M3403 1965 c0 -22 2 -30 4 -17 2 12 2 30 0 40 -3 9 -5 -1 -4 -23z"/>
<path d="M3434 1989 c-4 -8 -3 -9 4 -5 7 4 12 1 12 -9 0 -9 -4 -13 -10 -10 -6
3 -10 -4 -9 -17 0 -13 3 -17 6 -9 5 11 7 11 14 0 6 -10 9 -4 9 18 0 34 -14 51
-26 32z"/>
<path d="M3532 1986 c7 -8 15 -12 17 -11 5 6 -10 25 -20 25 -5 0 -4 -6 3 -14z"/>
<path d="M3560 1990 c0 -5 5 -10 10 -10 6 0 10 5 10 10 0 6 -4 10 -10 10 -5 0
-10 -4 -10 -10z"/>
<path d="M3617 1993 c-10 -10 -8 -61 2 -68 5 -3 13 0 17 6 4 8 3 9 -4 5 -8 -5
-12 3 -12 24 0 21 4 29 12 24 7 -4 8 -3 4 4 -8 14 -10 14 -19 5z"/>
<path d="M3650 1994 c0 -16 24 -64 33 -64 11 0 9 6 -13 42 -11 18 -20 28 -20
22z"/>
<path d="M3480 1981 c0 -6 5 -13 10 -16 6 -3 10 1 10 9 0 9 -4 16 -10 16 -5 0
-10 -4 -10 -9z"/>
<path d="M3592 1960 c0 -19 2 -27 5 -17 2 9 2 25 0 35 -3 9 -5 1 -5 -18z"/>
<path d="M3080 1932 c0 -43 3 -51 19 -49 17 1 18 3 3 47 -20 61 -22 61 -22 2z"/>
<path d="M3354 1960 c0 -13 4 -16 10 -10 7 7 7 13 0 20 -6 6 -10 3 -10 -10z"/>
<path d="M3471 1944 c0 -11 3 -14 6 -6 3 7 2 16 -1 19 -3 4 -6 -2 -5 -13z"/>
<path d="M878 1943 c12 -2 30 -2 40 0 9 3 -1 5 -23 4 -22 0 -30 -2 -17 -4z"/>
<path d="M3530 1930 c-9 -6 -10 -10 -3 -10 6 0 15 5 18 10 8 12 4 12 -15 0z"/>
<path d="M1222 1910 c0 -14 2 -19 5 -12 2 6 2 18 0 25 -3 6 -5 1 -5 -13z"/>
<path d="M1308 1903 c28 -2 76 -2 105 0 28 2 5 3 -53 3 -58 0 -81 -1 -52 -3z"/>
<path d="M1743 1883 c37 -2 96 -2 130 0 34 2 4 3 -68 3 -71 0 -99 -1 -62 -3z"/>
<path d="M1221 1858 l-1 -28 138 2 137 2 -132 3 c-127 3 -132 4 -136 26 -4 18
-4 18 -6 -5z"/>
<path d="M3398 1873 c56 -2 148 -2 205 0 56 1 10 3 -103 3 -113 0 -159 -2
-102 -3z"/>
<path d="M3490 1851 c0 -6 -7 -11 -15 -11 -9 0 -19 -10 -24 -22 -20 -54 27
-94 74 -64 38 25 32 58 -17 95 -12 9 -18 10 -18 2z m30 -57 c0 -20 -30 -30
-40 -13 -11 17 7 40 26 32 8 -3 14 -12 14 -19z"/>
<path d="M945 1360 c0 -234 1 -329 2 -213 2 117 2 309 0 425 -1 117 -2 22 -2
-212z"/>
<path d="M3785 1654 c-9 -15 -12 -23 -6 -20 11 7 35 46 28 46 -3 0 -12 -12
-22 -26z"/>
<path d="M3700 1663 c0 -6 8 -17 18 -24 16 -13 16 -13 2 6 -8 11 -16 22 -17
24 -2 2 -3 0 -3 -6z"/>
<path d="M3214 1633 c16 -20 36 -23 36 -6 0 4 -3 3 -7 0 -3 -4 -16 1 -27 10
-21 18 -21 18 -2 -4z"/>
<path d="M3747 1619 c7 -7 15 -10 18 -7 3 3 -2 9 -12 12 -14 6 -15 5 -6 -5z"/>
<path d="M3260 1586 c0 -2 8 -10 18 -17 15 -13 16 -12 3 4 -13 16 -21 21 -21
13z"/>
<path d="M3418 1513 c6 -2 18 -2 25 0 6 3 1 5 -13 5 -14 0 -19 -2 -12 -5z"/>
<path d="M3489 1513 c-1 -4 -1 -16 0 -25 1 -9 -6 -18 -16 -21 -10 -3 0 -5 22
-5 22 0 34 2 28 5 -7 2 -13 13 -13 23 0 18 -19 39 -21 23z"/>
<path d="M3558 1513 c7 -3 16 -2 19 1 4 3 -2 6 -13 5 -11 0 -14 -3 -6 -6z"/>
<path d="M3540 1456 c0 -2 7 -7 16 -10 8 -3 12 -2 9 4 -6 10 -25 14 -25 6z"/>
<path d="M3399 1423 l-24 -28 28 24 c25 23 32 31 24 31 -2 0 -14 -12 -28 -27z"/>
<path d="M3606 1397 c3 -10 9 -15 12 -12 3 3 0 11 -7 18 -10 9 -11 8 -5 -6z"/>
<path d="M3361 1334 c0 -11 3 -14 6 -6 3 7 2 16 -1 19 -3 4 -6 -2 -5 -13z"/>
<path d="M3400 1245 c13 -14 26 -25 28 -25 3 0 -5 11 -18 25 -13 14 -26 25
-28 25 -3 0 5 -11 18 -25z"/>
<path d="M3579 1243 l-24 -28 28 24 c15 14 27 26 27 28 0 8 -8 1 -31 -24z"/>
<path d="M3432 1075 c0 -16 2 -22 5 -12 2 9 2 23 0 30 -3 6 -5 -1 -5 -18z"/>
<path d="M5304 898 l-19 -23 23 19 c12 11 22 21 22 23 0 8 -8 2 -26 -19z"/>
<path d="M997 879 c7 -7 15 -10 18 -7 3 3 -2 9 -12 12 -14 6 -15 5 -6 -5z"/>
<path d="M2494 720 c0 -85 2 -120 3 -77 2 42 2 112 0 155 -1 42 -3 7 -3 -78z"/>
<path d="M2323 573 c32 -2 81 -2 110 0 29 2 3 3 -58 3 -60 0 -84 -1 -52 -3z"/>
<path d="M2828 573 c177 -2 467 -2 645 0 177 1 32 2 -323 2 -355 0 -500 -1
-322 -2z"/>
<path d="M3918 573 l92 -4 0 -49 0 -50 -877 -3 -878 -2 883 -3 882 -2 0 60 0
60 -97 -2 -98 -2 93 -3z"/>
</g>
</svg>
